<svg width="21" height="21" viewBox="0 0 21 21" fill="none" xmlns="http://www.w3.org/2000/svg">
<path fill-rule="evenodd" clip-rule="evenodd" d="M0.390137 20.95L1.80313 15.8144C0.930131 14.3079 0.471129 12.5989 0.473129 10.8598C0.476129 5.39557 4.94314 0.949951 10.4321 0.949951C11.7401 0.950183 13.0351 1.20692 14.2441 1.7055C15.4531 2.20408 16.5511 2.93474 17.4751 3.85573C18.4001 4.77672 19.1331 5.87 19.6341 7.07313C20.1341 8.27625 20.3911 9.56565 20.3901 10.8677C20.3881 16.3321 15.9201 20.7781 10.4321 20.7781H10.4281C8.76513 20.7781 7.12914 20.3634 5.66914 19.5719L0.390137 20.95ZM5.91313 17.7777L6.21614 17.9562C7.49114 18.708 8.94613 19.1046 10.4281 19.1044H10.4321C14.9941 19.1044 18.7071 15.4091 18.7091 10.8671C18.7091 9.7852 18.4961 8.71378 18.0801 7.714C17.6651 6.71423 17.0561 5.80568 16.2871 5.04022C15.5191 4.27477 14.6071 3.6674 13.6031 3.2528C12.5991 2.8382 11.5221 2.62449 10.4351 2.62386C5.87013 2.62386 2.15714 6.31877 2.15514 10.8604C2.15314 12.4113 2.59114 13.9311 3.42014 15.2442L3.61714 15.5559L2.78114 18.5955L5.91313 17.7777ZM15.4491 13.2246C15.3861 13.1213 15.2211 13.0593 14.9721 12.9354C14.7231 12.8114 13.5001 12.2124 13.2721 12.1297C13.0441 12.0469 12.8781 12.0057 12.7121 12.2536C12.5461 12.5015 12.0691 13.0593 11.9241 13.2246C11.7791 13.3898 11.6341 13.4105 11.3851 13.2866C11.1361 13.1626 10.3341 12.9011 9.38414 12.0575C8.64414 11.4008 8.14514 10.5899 8.00014 10.342C7.85414 10.0941 7.98413 9.96005 8.10913 9.83662C8.22113 9.72562 8.35813 9.54736 8.48213 9.40276C8.60613 9.25816 8.64814 9.15484 8.73114 8.98965C8.81414 8.82445 8.77214 8.67975 8.71014 8.55579C8.64814 8.43183 8.15013 7.21289 7.94313 6.71706C7.74113 6.23424 7.53613 6.29961 7.38313 6.29198C7.23813 6.28483 7.07214 6.28326 6.90614 6.28326C6.78014 6.28654 6.65613 6.31576 6.54213 6.3691C6.42813 6.42243 6.32613 6.49872 6.24313 6.59315C6.01513 6.84107 5.37213 7.44017 5.37213 8.65896C5.37213 9.87776 6.26314 11.0554 6.38814 11.2207C6.51214 11.386 8.14214 13.8871 10.6381 14.9598C11.1021 15.1585 11.5751 15.3326 12.0571 15.4814C12.6531 15.6699 13.1951 15.6435 13.6241 15.5796C14.1021 15.5085 15.0961 14.9805 15.3041 14.402C15.5111 13.8234 15.5111 13.3279 15.4491 13.2246Z" fill="#34D36A"/>
</svg>
