<svg width="20" height="20" viewBox="0 0 20 20" fill="none" xmlns="http://www.w3.org/2000/svg">
<path d="M0 20L1.72 14.8403C0.847241 13.3724 0.344828 11.6593 0.344828 9.82759C0.344828 4.4 4.74483 0 10.1724 0C15.6 0 20 4.4 20 9.82759C20 15.2552 15.6 19.6552 10.1724 19.6552C8.52103 19.6552 6.96586 19.2459 5.6 18.5266L0 20Z" fill="#00DF6C"/>
<path d="M14.9119 11.7734C14.5464 11.0826 13.1983 10.2926 13.1983 10.2926C12.8933 10.1187 12.5253 10.0993 12.3514 10.4093C12.3514 10.4093 11.9133 10.9345 11.8019 11.0101C11.293 11.3548 10.8216 11.3415 10.3458 10.8656L9.23997 9.75983L8.13414 8.65401C7.6583 8.17819 7.64497 7.70681 7.98969 7.19793C8.06525 7.08654 8.59053 6.64849 8.59053 6.64849C8.90053 6.47433 8.88108 6.10655 8.70719 5.80156C8.70719 5.80156 7.91719 4.45353 7.22635 4.08798C6.93246 3.93242 6.57163 3.98687 6.33663 4.22186L5.84829 4.71019C4.29912 6.25933 5.0619 8.00819 6.61107 9.55733L8.02691 10.9731L9.44275 12.389C10.9919 13.9381 12.7408 14.7009 14.29 13.1517L14.7783 12.6634C15.0133 12.4278 15.0675 12.067 14.9119 11.7734Z" fill="white"/>
</svg>
