<svg width="24" height="24" viewBox="0 0 24 24" fill="none" xmlns="http://www.w3.org/2000/svg">
<path d="M0 24L2.064 17.8084C1.01669 16.0469 0.413793 13.9912 0.413793 11.7931C0.413793 5.28 5.69379 0 12.2069 0C18.72 0 24 5.28 24 11.7931C24 18.3062 18.72 23.5862 12.2069 23.5862C10.2252 23.5862 8.35903 23.095 6.72 22.2319L0 24Z" fill="#2CB742"/>
<path d="M19.7311 15.7179C19.1866 14.6888 17.1784 13.512 17.1784 13.512C16.7241 13.253 16.1758 13.224 15.9168 13.6858C15.9168 13.6858 15.2642 14.4683 15.0983 14.5808C14.3402 15.0944 13.638 15.0745 12.9292 14.3657L11.2819 12.7184L9.63459 11.071C8.92576 10.3622 8.9059 9.66001 9.41941 8.90194C9.53197 8.73601 10.3144 8.08346 10.3144 8.08346C10.7762 7.82401 10.7473 7.27615 10.4882 6.82181C10.4882 6.82181 9.31141 4.81367 8.28231 4.26912C7.84452 4.03739 7.307 4.1185 6.95693 4.46857L6.22948 5.19601C3.92176 7.50374 5.05804 10.109 7.36576 12.4167L9.47486 14.5258L11.584 16.6349C13.8917 18.9426 16.4969 20.0789 18.8047 17.7712L19.5321 17.0437C19.8822 16.6928 19.9629 16.1553 19.7311 15.7179Z" fill="white"/>
</svg>
