<svg width="30" height="30" viewBox="0 0 30 30" fill="none" xmlns="http://www.w3.org/2000/svg">
<path d="M21.5519 0.737671H4.51288V25.3278H21.5519V0.737671Z" fill="#E9E9E9"/>
<path d="M21.552 4.67212V25.3279H8.44745V29.2623H25.4865V4.67212H21.552Z" fill="white"/>
<path d="M25.4867 3.93443H22.29V0.737705C22.29 0.330295 21.9598 0 21.5523 0H4.51328C4.10577 0 3.77557 0.330295 3.77557 0.737705V25.3279C3.77557 25.7353 4.10577 26.0656 4.51328 26.0656H7.71V29.2623C7.71 29.6697 8.0402 30 8.4477 30H25.4867C25.8942 30 26.2244 29.6697 26.2244 29.2623V4.67213C26.2244 4.26472 25.8942 3.93443 25.4867 3.93443ZM5.25098 1.47541H20.8146C20.8146 2.29662 20.8146 23.7365 20.8146 24.5902C20.2679 24.5902 6.26193 24.5902 5.25098 24.5902V1.47541ZM24.749 28.5246H9.18541V26.0656H21.5523C21.9598 26.0656 22.29 25.7353 22.29 25.3279V5.40984H24.749V28.5246Z" fill="#005027"/>
<path d="M9.09531 7.74226H16.971C17.3786 7.74226 17.7088 7.41196 17.7088 7.00455C17.7088 6.59714 17.3786 6.26685 16.971 6.26685H9.09531C8.6879 6.26685 8.3576 6.59714 8.3576 7.00455C8.3576 7.41196 8.6878 7.74226 9.09531 7.74226Z" fill="#005027"/>
<path d="M9.09531 12.0207H16.971C17.3786 12.0207 17.7088 11.6904 17.7088 11.283C17.7088 10.8756 17.3786 10.5453 16.971 10.5453H9.09531C8.6879 10.5453 8.3576 10.8756 8.3576 11.283C8.3576 11.6904 8.6878 12.0207 9.09531 12.0207Z" fill="#005027"/>
<path d="M9.09531 16.2993H16.971C17.3786 16.2993 17.7088 15.969 17.7088 15.5616C17.7088 15.1541 17.3786 14.8239 16.971 14.8239H9.09531C8.6879 14.8239 8.3576 15.1541 8.3576 15.5616C8.3576 15.969 8.6878 16.2993 9.09531 16.2993Z" fill="#005027"/>
</svg>
