<svg width="40" height="40" viewBox="0 0 40 40" fill="none" xmlns="http://www.w3.org/2000/svg">
<rect width="40" height="40" rx="10" fill="url(#paint0_linear_2087_3048)"/>
<path d="M29.8327 11.3895C29.6611 11.1456 29.3816 11.0004 29.0831 11.0004H26.9684C26.5767 11.0004 26.2279 11.2498 26.101 11.6202L23.5088 19.1926C23.2242 20.0281 22.922 20.9237 22.6341 21.8303C22.3894 21.0029 22.1173 20.13 21.8173 19.1889L19.4297 11.6404C19.309 11.2593 18.9555 11 18.5554 11H16.4183C16.1245 11 15.8483 11.1408 15.6763 11.3785C15.5036 11.6158 15.4555 11.922 15.5465 12.2011L20.549 27.526C20.6719 27.903 21.0236 28.1587 21.4205 28.1587H23.6034C23.9907 28.1587 24.3362 27.9152 24.4667 27.5506L29.9464 12.2261C30.0469 11.9455 30.0044 11.633 29.8327 11.3895Z" fill="white"/>
<rect x="10" y="11" width="3.66756" height="17.2375" rx="0.733512" fill="white"/>
<defs>
<linearGradient id="paint0_linear_2087_3048" x1="0.000112656" y1="20.0013" x2="39.9999" y2="20.0013" gradientUnits="userSpaceOnUse">
<stop stop-color="#CAE5C7"/>
<stop offset="1" stop-color="#60BB3A"/>
</linearGradient>
</defs>
</svg>
