<svg width="40" height="40" viewBox="0 0 40 40" fill="none" xmlns="http://www.w3.org/2000/svg">
<rect width="40" height="40" rx="10" fill="url(#paint0_linear_2087_3066)"/>
<g clip-path="url(#clip0_2087_3066)">
<path d="M27.0585 25.2343H13.4696C13.1624 25.2343 12.9379 24.944 13.0154 24.6466L13.6711 22.133L14.57 18.6854C14.6352 18.4349 14.8261 18.2366 15.0736 18.162L17.2659 17.4999C17.4712 17.4379 17.6397 17.2899 17.7279 17.094L18.3916 15.6198L18.8454 14.6122C18.887 14.5199 18.9555 14.4423 19.0416 14.3892L20.8401 13.2831C21.0829 13.1339 21.4012 13.2147 21.5435 13.4617L23.3632 16.6228L24.1986 18.0746C24.2213 18.1142 24.2479 18.151 24.2777 18.185C24.3361 18.252 24.4075 18.3071 24.488 18.3472L26.1847 19.1919C26.3765 19.2875 26.5131 19.4671 26.5534 19.6777L27.3772 23.9624L27.5014 24.6091C27.6088 24.9145 27.3822 25.2343 27.0585 25.2343Z" fill="url(#paint1_linear_2087_3066)"/>
<path d="M22.3293 25.2343H13.4696C13.1624 25.2343 12.9379 24.944 13.0154 24.6466L13.6711 22.133L16.9945 21.3774C17.6356 21.2316 18.3085 21.3444 18.8669 21.6908L21.0767 23.0611C21.6511 23.4175 22.0571 23.9911 22.2016 24.6512L22.3293 25.2343Z" fill="#C17A4A"/>
<path d="M27.3772 23.9623L27.3079 23.947L25.7112 24.0566C25.1822 24.0928 24.6772 23.775 24.3818 23.2201L23.9405 22.3914C23.7251 21.9866 23.6416 21.4931 23.7068 21.0125L24.2626 18.2761L24.2777 18.185C24.3361 18.2519 24.4075 18.307 24.4881 18.3472L26.1847 19.1919C26.3765 19.2874 26.513 19.4671 26.5535 19.6777L27.3772 23.9623Z" fill="#C17A4A"/>
<path d="M23.3631 16.6228C23.3026 16.7131 23.266 16.7671 23.266 16.7671L22.0502 17.3117C21.6183 17.5049 21.1173 17.4616 20.7253 17.1966L18.3919 15.6198C18.3919 15.6198 18.3919 15.6198 18.3916 15.6198L18.8454 14.6122C18.887 14.5199 18.9555 14.4423 19.0416 14.3892L20.84 13.2831C21.0829 13.1339 21.4012 13.2147 21.5434 13.4617L23.3631 16.6228Z" fill="#C17A4A"/>
</g>
<defs>
<linearGradient id="paint0_linear_2087_3066" x1="1.5" y1="3.40956e-07" x2="36" y2="33" gradientUnits="userSpaceOnUse">
<stop stop-color="white"/>
<stop offset="1" stop-color="#ECECEC"/>
</linearGradient>
<linearGradient id="paint1_linear_2087_3066" x1="26.7055" y1="19.8055" x2="13.6669" y2="19.8055" gradientUnits="userSpaceOnUse">
<stop stop-color="#C07949"/>
<stop offset="1" stop-color="#E1C8B8"/>
</linearGradient>
<clipPath id="clip0_2087_3066">
<rect width="14.5" height="12.3909" fill="white" transform="translate(13 13)"/>
</clipPath>
</defs>
</svg>
