<svg width="71" height="70" viewBox="0 0 71 70" fill="none" xmlns="http://www.w3.org/2000/svg">
<path d="M33.0353 38.4775H27.1198C26.5775 38.4775 26.1339 38.9212 26.1339 39.4635V58.1958C26.1339 58.7381 26.5775 59.1818 27.1198 59.1818H33.0353C33.5775 59.1818 34.0212 58.7381 34.0212 58.1958V39.4635C34.0212 38.9212 33.5775 38.4775 33.0353 38.4775Z" fill="#C4C4C4"/>
<path d="M44.8665 31.5759H38.951C38.4087 31.5759 37.9651 32.0196 37.9651 32.5618V58.1956C37.9651 58.7379 38.4087 59.1816 38.951 59.1816H44.8665C45.4087 59.1816 45.8524 58.7379 45.8524 58.1956V32.5618C45.8524 32.0196 45.4087 31.5759 44.8665 31.5759Z" fill="white"/>
<path d="M21.2043 43.407H15.2888C14.7465 43.407 14.3029 43.8506 14.3029 44.3929V58.1957C14.3029 58.738 14.7465 59.1816 15.2888 59.1816H21.2043C21.7465 59.1816 22.1902 58.738 22.1902 58.1957V44.3929C22.1902 43.8506 21.7465 43.407 21.2043 43.407Z" fill="black"/>
<path d="M56.6976 23.6887H50.7821C50.2398 23.6887 49.7961 24.1324 49.7961 24.6746V58.1958C49.7961 58.738 50.2398 59.1817 50.7821 59.1817H56.6976C57.2398 59.1817 57.6835 58.738 57.6835 58.1958V24.6746C57.6835 24.1324 57.2398 23.6887 56.6976 23.6887Z" fill="#83C88F"/>
<path d="M54.1181 17.837C54.2052 18.3126 54.6197 18.6458 55.0871 18.6458C55.1459 18.6458 55.2052 18.641 55.2653 18.6294C55.8007 18.5322 56.1559 18.019 56.0582 17.4827L55.1733 12.6331L55.1723 12.6305C55.1568 12.5479 55.1158 12.473 55.0796 12.3965C54.9462 12.1123 54.6996 11.905 54.3944 11.8458C54.3674 11.8404 54.3406 11.8477 54.3134 11.8446C54.2192 11.8344 54.1249 11.8221 54.0262 11.8407L49.1765 12.7255C48.6411 12.8228 48.2859 13.3359 48.3836 13.8722C48.4818 14.4075 48.9911 14.7704 49.5308 14.6646L52.0013 14.2139C47.9114 19.8186 43.0075 24.7198 37.3827 28.8057C31.477 33.0945 24.9404 36.3676 17.9503 38.517C17.4376 38.6846 17.1418 39.2367 17.2996 39.7494C17.4376 40.1733 17.8221 40.4494 18.246 40.4494C18.3446 40.4494 18.4432 40.4297 18.532 40.4001C25.7291 38.1818 32.463 34.8198 38.5461 30.4029C44.3656 26.1736 49.4323 21.0969 53.6544 15.2946L54.1181 17.837Z" fill="white"/>
</svg>
