<svg width="50" height="50" viewBox="0 0 50 50" fill="none" xmlns="http://www.w3.org/2000/svg">
<g clip-path="url(#clip0_2086_5352)">
<path fill-rule="evenodd" clip-rule="evenodd" d="M7.30441 18.8229H1.97813C1.5637 18.8229 1.28158 18.3937 1.4464 18.0137C3.04332 14.3323 2.38921 14.7115 4.73678 15.2535C6.56472 12.7763 5.81142 12.9078 8.883 14.8124C9.12707 14.9636 9.22315 15.2712 9.10907 15.5348L7.83535 18.4743C7.74423 18.6856 7.53486 18.8229 7.30441 18.8229Z" fill="#9499A4"/>
<path fill-rule="evenodd" clip-rule="evenodd" d="M20.8434 18.8229H7.30441C6.89033 18.8229 6.60797 18.3936 6.77268 18.0133L8.66026 13.6581C8.77122 13.402 9.04965 13.2609 9.32187 13.324L11.8015 13.8963L13.8405 11.1331C14.0194 10.8902 14.3554 10.8262 14.6119 10.9847C15.1912 11.3434 18.8864 13.5289 19.0515 13.8271C19.3622 14.3883 21.4222 17.9204 21.4224 18.2435C21.4227 18.5638 21.1634 18.8229 20.8434 18.8229Z" fill="#A1A7B3"/>
<path fill-rule="evenodd" clip-rule="evenodd" d="M34.6762 27.2102H31.7004C31.3808 27.2102 31.1212 26.9504 31.1212 26.631V22.8351C31.1212 22.5155 31.381 22.256 31.7004 22.256L34.6762 22.2559C34.996 22.2559 35.2555 22.5153 35.2555 22.835V26.6309C35.2559 26.9506 34.9961 27.2102 34.6762 27.2102Z" fill="black"/>
<path fill-rule="evenodd" clip-rule="evenodd" d="M31.7005 31.0433H6.15229C2.75961 31.0433 0.000152588 28.2834 0.000152588 24.891L0.000383155 18.2438C0.000383155 17.9241 0.259788 17.6647 0.579517 17.6647H20.5641L25.6009 11.62C25.7106 11.4881 25.874 11.4116 26.0456 11.4116H31.7005C32.0204 11.4116 32.2798 11.6711 32.2798 11.9908V30.4641C32.2798 30.7838 32.0204 31.0433 31.7005 31.0433Z" fill="#83C88F"/>
<path fill-rule="evenodd" clip-rule="evenodd" d="M48.8419 31.0433H34.6761C34.3564 31.0433 34.097 30.7835 34.097 30.4641V16.0301C34.097 15.7103 34.3567 15.4509 34.6761 15.4509H46.6033C46.8575 15.4509 47.0815 15.6162 47.1568 15.8591L49.4208 23.2704V30.4637C49.4211 30.7839 49.1616 31.0433 48.8419 31.0433Z" fill="#83C88F"/>
<path fill-rule="evenodd" clip-rule="evenodd" d="M42.6075 25.3224H37.2552C36.7225 25.3224 36.2899 24.8898 36.2899 24.3571V18.7702C36.2899 18.2376 36.7226 17.8049 37.2552 17.8049H44.6875C45.1145 17.8049 45.4917 18.0849 45.6126 18.4949L47.2287 23.9793V27.0792C47.2287 27.612 46.796 28.0443 46.2631 28.0443C45.5348 28.0443 44.8021 28.0825 44.0764 28.0754C43.6724 28.0713 43.1775 28.0554 42.8785 27.7431C42.6114 27.4639 42.5886 27.0457 42.5848 26.6805C42.5798 26.2299 42.5988 25.7757 42.6075 25.3224Z" fill="#BDFFC9"/>
<path fill-rule="evenodd" clip-rule="evenodd" d="M46.2632 27.6582C42.4491 27.6582 42.9978 28.1844 42.9978 24.9362H37.2552C36.9356 24.9362 36.676 24.6766 36.676 24.357V18.7702C36.676 18.4506 36.9359 18.1909 37.2552 18.1909H44.6875C44.9435 18.1909 45.1688 18.3586 45.2422 18.604L46.8425 24.0349V27.0791C46.8423 27.3988 46.5829 27.6582 46.2632 27.6582Z" fill="#E5E2FF"/>
<path fill-rule="evenodd" clip-rule="evenodd" d="M46.9596 35.9682H44.3472C44.0277 35.9682 43.768 35.7084 43.768 35.3889C43.768 32.0266 38.6586 32.0266 38.6586 35.3889C38.6586 35.7088 38.3988 35.9682 38.0796 35.9682H14.5304C14.2107 35.9682 13.9512 35.7084 13.9512 35.3889C13.9512 32.0262 8.8413 32.027 8.8413 35.3889C8.8413 35.7088 8.5819 35.9682 8.26228 35.9682H4.51042C2.83334 35.9682 1.46872 34.6036 1.46872 32.9264V30.4641C1.46872 30.1444 1.72812 29.885 2.04785 29.885H49.4211C49.7407 29.885 50.0002 30.1449 50.0002 30.4641V32.9264C50.001 34.6036 48.6367 35.9682 46.9596 35.9682Z" fill="black"/>
<path fill-rule="evenodd" clip-rule="evenodd" d="M45.6616 35.9683H44.3475C44.028 35.9683 43.7683 35.7085 43.7683 35.389C43.7683 32.0266 38.6589 32.0266 38.6589 35.389C38.6589 35.7088 38.3991 35.9683 38.0799 35.9683H36.7655C36.741 35.7785 36.728 35.5853 36.728 35.389C36.728 32.9156 38.7401 30.9038 41.2135 30.9038C43.6869 30.9038 45.6989 32.9156 45.6989 35.389C45.6989 35.5853 45.686 35.7785 45.6616 35.9683ZM15.8446 35.9683H14.5308C14.2111 35.9683 13.9516 35.7085 13.9516 35.389C13.9516 32.0263 8.84166 32.0271 8.84166 35.389C8.84166 35.7088 8.58225 35.9683 8.26264 35.9683H6.94877C6.9242 35.7785 6.91129 35.5853 6.91129 35.389C6.91129 32.9156 8.92332 30.9038 11.3967 30.9038C13.8701 30.9038 15.8818 32.9156 15.8818 35.389C15.8818 35.5853 15.869 35.7785 15.8446 35.9683Z" fill="#55547A"/>
<path fill-rule="evenodd" clip-rule="evenodd" d="M41.2133 39.102C39.1657 39.102 37.5002 37.4361 37.5002 35.3889C37.5002 33.3418 39.1662 31.676 41.2133 31.676C43.2603 31.676 44.9264 33.3418 44.9264 35.3889C44.9264 37.4361 43.2608 39.102 41.2133 39.102Z" fill="#9499A4"/>
<path fill-rule="evenodd" clip-rule="evenodd" d="M11.3967 39.102C9.34917 39.102 7.68375 37.4361 7.68375 35.3889C7.68375 33.3418 9.34964 31.676 11.3967 31.676C13.4439 31.676 15.1095 33.3418 15.1095 35.3889C15.1095 37.4361 13.4444 39.102 11.3967 39.102Z" fill="#9499A4"/>
<path fill-rule="evenodd" clip-rule="evenodd" d="M41.2128 37.137C38.9124 37.137 38.9122 33.6406 41.2128 33.6406C43.5136 33.6406 43.5132 37.137 41.2128 37.137Z" fill="#AAB0BB"/>
<path fill-rule="evenodd" clip-rule="evenodd" d="M11.3963 37.137C9.09615 37.137 9.09546 33.6406 11.3963 33.6406C13.6961 33.6406 13.6967 37.137 11.3963 37.137Z" fill="#AAB0BB"/>
<path fill-rule="evenodd" clip-rule="evenodd" d="M47.4804 39.102H5.12958C4.36717 39.102 4.36717 37.9436 5.12958 37.9436H47.4804C48.2427 37.9436 48.2427 39.102 47.4804 39.102Z" fill="black"/>
</g>
<defs>
<clipPath id="clip0_2086_5352">
<rect width="50" height="50" fill="white"/>
</clipPath>
</defs>
</svg>
