<svg width="50" height="50" viewBox="0 0 50 50" fill="none" xmlns="http://www.w3.org/2000/svg">
<g clip-path="url(#clip0_2086_5370)">
<path d="M39.9999 10.0001C42.7614 10.0001 45 7.76148 45 5.00004C45 2.23859 42.7614 0 39.9999 0C37.2385 0 34.9999 2.23859 34.9999 5.00004C34.9999 7.76148 37.2385 10.0001 39.9999 10.0001Z" fill="black"/>
<path d="M9.99997 10.0001C12.7614 10.0001 15 7.76148 15 5.00004C15 2.23859 12.7614 0 9.99997 0C7.23853 0 4.99994 2.23859 4.99994 5.00004C4.99994 7.76148 7.23853 10.0001 9.99997 10.0001Z" fill="white"/>
<path d="M24.9999 10.0001C27.7614 10.0001 29.9999 7.76148 29.9999 5.00004C29.9999 2.23859 27.7614 0 24.9999 0C22.2385 0 19.9999 2.23859 19.9999 5.00004C19.9999 7.76148 22.2385 10.0001 24.9999 10.0001Z" fill="#83C88F"/>
<path d="M9.99995 15C6.24996 15 2.74992 16 0 17.5V37.5H5.00004V50H15V42.5H9.99995V15Z" fill="white"/>
<path d="M39.9999 15V42.5H34.9999V50H45V37.5H50V17.5C47.2499 16 43.7499 15 39.9999 15Z" fill="black"/>
<path d="M35 17.5C32.25 16 28.7499 15 25 15C21.25 15 17.7499 16 15 17.5V37.5H20V50H30V37.5H35V17.5Z" fill="#83C88F"/>
</g>
<defs>
<clipPath id="clip0_2086_5370">
<rect width="50" height="50" fill="white"/>
</clipPath>
</defs>
</svg>
