<svg width="50" height="50" viewBox="0 0 50 50" fill="none" xmlns="http://www.w3.org/2000/svg">
<g clip-path="url(#clip0_2086_5380)">
<path d="M49.3454 31.6896L47.8747 30.7131L27.4307 44.286C26.7078 44.7658 25.8674 45.0194 25 45.0194C24.1326 45.0194 23.2923 44.7658 22.5696 44.2862L2.12538 30.7132L0.654578 31.6897C-0.218274 32.2692 -0.218274 33.551 0.654578 34.1304L24.1897 49.7554C24.6807 50.0814 25.3192 50.0814 25.8101 49.7554L49.3453 34.1304C50.2182 33.5509 50.2182 32.2691 49.3454 31.6896Z" fill="black"/>
<path d="M49.3454 23.7794L47.8747 22.803L27.4307 36.3758C26.708 36.8556 25.8675 37.1093 25 37.1093C24.1325 37.1093 23.292 36.8556 22.5693 36.3758L2.1254 22.8031L0.6547 23.7794C-0.218152 24.3589 -0.218152 25.6408 0.6547 26.2202L24.1899 41.8452C24.6809 42.1711 25.3193 42.1711 25.8103 41.8452L49.3454 26.2202C50.2182 25.6408 50.2182 24.3589 49.3454 23.7794Z" fill="white"/>
<path d="M0.6547 18.3102L24.1899 33.9352C24.6809 34.2612 25.3193 34.2612 25.8103 33.9352L49.3454 18.3102C50.2183 17.7307 50.2183 16.449 49.3454 15.8695L25.8103 0.244482C25.3193 -0.0814941 24.6808 -0.0814941 24.1899 0.244482L0.6547 15.8695C-0.218152 16.4489 -0.218152 17.7307 0.6547 18.3102ZM32.5442 22.2937C32.0967 22.9677 31.1876 23.1513 30.5136 22.7039L25 19.0434L19.4864 22.7039C18.8124 23.1513 17.9033 22.9677 17.4559 22.2937C17.0084 21.6197 17.192 20.7106 17.866 20.2631L24.1899 16.0648C24.6808 15.7388 25.3193 15.7388 25.8103 16.0648L32.134 20.2631C32.808 20.7106 32.9916 21.6197 32.5442 22.2937ZM11.9088 16.308L24.1898 8.15464C24.6807 7.82866 25.3193 7.82866 25.8102 8.15464L38.0911 16.308C38.7652 16.7554 38.9487 17.6645 38.5013 18.3385C38.0538 19.0125 37.1447 19.1961 36.4707 18.7487L25 11.1333L13.5292 18.7487C12.8552 19.1961 11.9461 19.0125 11.4986 18.3385C11.0512 17.6646 11.2349 16.7554 11.9088 16.308Z" fill="#83C88F"/>
</g>
<defs>
<clipPath id="clip0_2086_5380">
<rect width="50" height="50" fill="white"/>
</clipPath>
</defs>
</svg>
