<svg width="911" height="356" viewBox="0 0 911 356" fill="none" xmlns="http://www.w3.org/2000/svg">
<path fill-rule="evenodd" clip-rule="evenodd" d="M158.976 1.08512C80.1881 8.59912 19.0251 64.2121 2.27508 143.566C0.279076 153.022 -0.0209222 157.288 0.0010778 175.956C0.0220778 194.158 0.368078 199.157 2.25808 208.545C11.9671 256.761 39.2321 297.498 79.4761 323.916C141.235 364.457 227.56 359.983 285.476 313.24C294.155 306.235 597.476 2.52312 597.476 0.838123C597.476 0.0151232 582.292 -0.169877 540.726 0.144123C488.548 0.539123 483.694 0.719119 480.476 2.37312C478.551 3.36312 422.301 58.8041 355.476 125.574C288.651 192.344 231.44 248.769 228.342 250.962C198.268 272.246 155.772 272.984 124.767 252.76C116.704 247.501 107.012 238.182 100.462 229.394C81.4461 203.874 78.4421 164.972 93.2081 135.456C106.707 108.473 133.087 89.4541 163.168 85.0171C183.397 82.0331 203.261 86.2961 221.496 97.5341C232.605 104.381 238.099 109.223 258.583 130.222L277.189 149.296L280.083 147.192C281.674 146.034 295.351 132.656 310.476 117.462L337.976 89.8381L314.932 67.1471C285.309 37.9761 274.313 29.2231 254.476 19.0171C236.609 9.82612 212.286 3.12512 188.976 0.973118C176.622 -0.166882 171.919 -0.149883 158.976 1.08512ZM717.976 5.06412C684.695 8.56612 651.117 22.8451 623.976 45.0391C620.126 48.1871 548.801 119.085 465.476 202.59C336.775 331.569 314.352 354.452 316.476 354.65C317.851 354.778 344.176 355.048 374.976 355.251L430.976 355.621L552.476 234.462C619.301 167.824 676.226 111.521 678.976 109.344C702.204 90.9551 728.142 84.3011 754.994 89.8441C786.582 96.3631 813.422 119.971 823.961 150.506C831.96 173.68 828.715 205.066 816.131 226.238C811.1 234.702 800.344 246.47 791.496 253.189C782.91 259.709 767.071 267.24 756.444 269.856C744.756 272.733 728.942 272.728 717.416 269.845C694.718 264.166 680.715 254.013 646.157 218.175C640.207 212.005 634.914 206.956 634.396 206.956C632.866 206.956 575.476 264.539 575.476 266.074C575.476 268.027 615.647 307.707 627.518 317.479C636.734 325.067 654.514 335.744 666.476 340.875C702.118 356.163 742.999 359.621 779.476 350.435C831.743 337.272 872.441 304.022 895.462 255.674C902.004 241.934 905.431 231.762 908.582 216.729C910.444 207.849 910.752 202.931 910.853 180.456C910.985 150.98 909.905 142.277 903.841 123.956C886.653 72.0301 844.238 29.5171 793.476 13.3361C767.734 5.13012 743.049 2.42612 717.976 5.06412Z" fill="#007D3A"/>
</svg>
