<svg width="104" height="40" viewBox="0 0 104 40" fill="none" xmlns="http://www.w3.org/2000/svg">
<path fill-rule="evenodd" clip-rule="evenodd" d="M18.1515 0.122053C9.15566 0.967222 2.17223 7.22253 0.259762 16.1482C0.0318642 17.2118 -0.00238884 17.6917 0.00012306 19.7914C0.00252079 21.8388 0.0420262 22.401 0.257821 23.457C1.36637 28.8803 4.47942 33.4624 9.07437 36.4338C16.1259 40.9939 25.9822 40.4906 32.5949 35.233C33.5859 34.4451 68.2183 0.283799 68.2183 0.0942715C68.2183 0.00170105 66.4846 -0.0191076 61.7387 0.0162109C55.7811 0.0606402 55.2269 0.080886 54.8595 0.266927C54.6397 0.378281 48.2172 6.61424 40.5873 14.1245C32.9574 21.6347 26.4252 27.9814 26.0715 28.228C22.6377 30.622 17.7856 30.705 14.2456 28.4303C13.325 27.8387 12.2184 26.7905 11.4705 25.8021C9.2993 22.9316 8.95631 18.5559 10.6423 15.236C12.1835 12.201 15.1955 10.0617 18.6301 9.56266C20.9398 9.22702 23.2078 9.70652 25.2898 10.9706C26.5582 11.7407 27.1855 12.2853 29.5243 14.6473L31.6487 16.7927L31.9792 16.5561C32.1608 16.4258 33.7224 14.9211 35.4493 13.2121L38.5892 10.1049L35.9581 7.55266C32.5758 4.27152 31.3204 3.28699 29.0554 2.13903C27.0154 1.10523 24.2383 0.351511 21.5768 0.109456C20.1662 -0.0187708 19.6293 -0.0168587 18.1515 0.122053ZM81.9766 0.569609C78.1767 0.963511 74.3428 2.5696 71.244 5.06597C70.8044 5.42005 62.6607 13.3946 53.1468 22.7872C38.4521 37.2946 35.8919 39.8685 36.1344 39.8908C36.2914 39.9052 39.2971 39.9356 42.8138 39.9584L49.2077 40L63.0803 26.3721C70.7102 18.8767 77.2097 12.5438 77.5237 12.2989C80.1758 10.2306 83.1374 9.48213 86.2033 10.1056C89.8099 10.8389 92.8744 13.4943 94.0777 16.9288C94.991 19.5354 94.6205 23.0657 93.1837 25.4471C92.6093 26.3991 91.3812 27.7228 90.371 28.4785C89.3906 29.2119 87.5822 30.059 86.3688 30.3532C85.0343 30.6768 83.2287 30.6763 81.9127 30.352C79.3211 29.7132 77.7223 28.5712 73.7765 24.5402C73.0972 23.8462 72.4928 23.2783 72.4337 23.2783C72.259 23.2783 65.7064 29.7552 65.7064 29.9278C65.7064 30.1475 70.293 34.6107 71.6484 35.7098C72.7006 36.5633 74.7307 37.7642 76.0965 38.3414C80.166 40.061 84.8337 40.4499 88.9985 39.4167C94.9663 37.9361 99.613 34.1962 102.242 28.758C102.988 27.2126 103.38 26.0684 103.74 24.3775C103.952 23.3787 103.987 22.8255 103.999 20.2976C104.014 16.9821 103.891 16.0032 103.198 13.9425C101.236 8.10189 96.3929 3.32006 90.597 1.50004C87.6579 0.577032 84.8394 0.272888 81.9766 0.569609Z" fill="#008641"/>
</svg>
