<svg width="55" height="47" viewBox="0 0 55 47" fill="none" xmlns="http://www.w3.org/2000/svg">
<path d="M54.0761 1.062C53.6081 0.397 52.8461 0.0010004 52.0321 0.0010004H46.2661C45.1981 0.0010004 44.2471 0.681 43.9011 1.691L36.8331 22.338C36.0571 24.616 35.2331 27.058 34.4481 29.53C33.7811 27.274 33.0391 24.894 32.2211 22.328L25.7111 1.746C25.3821 0.707 24.4181 0 23.3271 0H17.5001C16.6991 0 15.9461 0.384 15.4771 1.032C15.0061 1.679 14.8751 2.514 15.1231 3.275L28.7631 45.06C29.0981 46.088 30.0571 46.785 31.1391 46.785H37.0911C38.1471 46.785 39.0891 46.121 39.4451 45.127L54.3861 3.343C54.6601 2.578 54.5441 1.726 54.0761 1.062Z" fill="url(#paint0_linear_2086_5459)"/>
<rect width="10" height="47" rx="2" fill="#C7E4C3"/>
<defs>
<linearGradient id="paint0_linear_2086_5459" x1="15.0001" y1="23.394" x2="54.5321" y2="23.394" gradientUnits="userSpaceOnUse">
<stop stop-color="#CAE5C7"/>
<stop offset="1" stop-color="#60BB3A"/>
</linearGradient>
</defs>
</svg>
