<svg width="55" height="47" viewBox="0 0 55 47" fill="none" xmlns="http://www.w3.org/2000/svg">
<g clip-path="url(#clip0_2086_5474)">
<path d="M53.3255 46.4059H1.78111C0.61608 46.4059 -0.235727 45.3048 0.0585796 44.1767L2.54547 34.6425L5.95522 21.5652C6.20244 20.615 6.92643 19.8628 7.86527 19.5799L16.1811 17.0686C16.9598 16.8336 17.5988 16.2719 17.9335 15.5289L20.4511 9.93712L22.1723 6.11534C22.33 5.76511 22.5898 5.47081 22.9165 5.26942L29.7381 1.07387C30.6593 0.507958 31.8668 0.814458 32.4062 1.75119L39.3086 13.7417L42.4774 19.2486C42.5636 19.3987 42.6645 19.5382 42.7776 19.6673C42.9992 19.9213 43.2699 20.1302 43.5752 20.2824L50.0108 23.4866C50.7386 23.849 51.2566 24.5305 51.4096 25.3293L54.5343 41.5814L55.0052 44.0346C55.4126 45.1929 54.5532 46.4059 53.3255 46.4059Z" fill="url(#paint0_linear_2086_5474)"/>
<path d="M35.3871 46.4059H1.78111C0.61608 46.4059 -0.235727 45.3048 0.0585796 44.1767L2.54547 34.6424L15.1515 31.7763C17.5833 31.2234 20.1357 31.651 22.2539 32.9649L30.6358 38.1628C32.8145 39.5145 34.3545 41.6902 34.9028 44.1944L35.3871 46.4059Z" fill="#C17A4A"/>
<path d="M54.5343 41.5814L54.2715 41.5233L48.2151 41.9387C46.2083 42.0762 44.2928 40.8708 43.1723 38.7661L41.4986 35.6225C40.6817 34.0871 40.3647 32.2153 40.6123 30.3922L42.7204 20.0129L42.7776 19.6673C42.9991 19.9212 43.2699 20.1302 43.5755 20.2824L50.0112 23.4866C50.7385 23.849 51.2565 24.5305 51.41 25.3293L54.5343 41.5814Z" fill="#C17A4A"/>
<path d="M39.3084 13.7417C39.0788 14.0843 38.9401 14.2891 38.9401 14.2891L34.3283 16.3547C32.6903 17.0875 30.7899 16.9231 29.3028 15.9183L20.4522 9.93712C20.4522 9.93712 20.4522 9.93712 20.4509 9.93712L22.1722 6.11534C22.3299 5.76511 22.5897 5.47081 22.9164 5.26942L29.738 1.07387C30.6592 0.507958 31.8667 0.814458 32.4061 1.75119L39.3084 13.7417Z" fill="#C17A4A"/>
</g>
<defs>
<linearGradient id="paint0_linear_2086_5474" x1="51.9864" y1="25.814" x2="2.5295" y2="25.814" gradientUnits="userSpaceOnUse">
<stop stop-color="#C07949"/>
<stop offset="1" stop-color="#E1C8B8"/>
</linearGradient>
<clipPath id="clip0_2086_5474">
<rect width="55" height="47" fill="white"/>
</clipPath>
</defs>
</svg>
