<svg width="40" height="47" viewBox="0 0 40 47" fill="none" xmlns="http://www.w3.org/2000/svg">
<path d="M39.0761 1.062C38.6081 0.397 37.8461 0.0010004 37.0321 0.0010004H31.2661C30.1981 0.0010004 29.2471 0.681 28.9011 1.691L21.8331 22.338C21.0571 24.616 20.2331 27.058 19.4481 29.53C18.7811 27.274 18.0391 24.894 17.2211 22.328L10.7111 1.746C10.3821 0.707 9.41811 0 8.32711 0H2.50011C1.69911 0 0.946111 0.384 0.477111 1.032C0.00611141 1.679 -0.124889 2.514 0.123111 3.275L13.7631 45.06C14.0981 46.088 15.0571 46.785 16.1391 46.785H22.0911C23.1471 46.785 24.0891 46.121 24.4451 45.127L39.3861 3.343C39.6601 2.578 39.5441 1.726 39.0761 1.062Z" fill="url(#paint0_linear_2086_5445)"/>
<defs>
<linearGradient id="paint0_linear_2086_5445" x1="0.000111339" y1="23.394" x2="39.5321" y2="23.394" gradientUnits="userSpaceOnUse">
<stop stop-color="#CAE5C7"/>
<stop offset="1" stop-color="#60BB3A"/>
</linearGradient>
</defs>
</svg>
