<svg width="32" height="32" viewBox="0 0 32 32" fill="none" xmlns="http://www.w3.org/2000/svg">
<g clip-path="url(#clip0_2086_5575)">
<path d="M16 32C24.8366 32 32 24.8366 32 16C32 7.16344 24.8366 0 16 0C7.16344 0 0 7.16344 0 16C0 24.8366 7.16344 32 16 32Z" fill="#039BE5"/>
<path d="M7.32199 15.6532L22.7487 9.70518C23.4647 9.44652 24.09 9.87985 23.858 10.9625L23.8593 10.9612L21.2327 23.3359C21.038 24.2132 20.5167 24.4265 19.7873 24.0132L15.7873 21.0652L13.858 22.9239C13.6447 23.1372 13.4647 23.3172 13.0513 23.3172L13.3353 19.2465L20.7487 12.5492C21.0713 12.2652 20.6767 12.1052 20.2513 12.3879L11.09 18.1558L7.14065 16.9238C6.28332 16.6518 6.26466 16.0665 7.32199 15.6532Z" fill="white"/>
</g>
<defs>
<clipPath id="clip0_2086_5575">
<rect width="32" height="32" fill="white"/>
</clipPath>
</defs>
</svg>
