<svg width="34" height="32" viewBox="0 0 34 32" fill="none" xmlns="http://www.w3.org/2000/svg">
<path d="M0 32L2.924 23.7446C1.44031 21.3959 0.586207 18.6549 0.586207 15.7241C0.586207 7.04 8.06621 0 17.2931 0C26.52 0 34 7.04 34 15.7241C34 24.4083 26.52 31.4483 17.2931 31.4483C14.4858 31.4483 11.842 30.7934 9.52 29.6425L0 32Z" fill="#2CB742"/>
<path d="M27.9524 20.9571C27.181 19.5849 24.3361 18.0158 24.3361 18.0158C23.6925 17.6704 22.9158 17.6318 22.5488 18.2475C22.5488 18.2475 21.6243 19.2908 21.3893 19.4409C20.3153 20.1256 19.3206 20.0991 18.3164 19.154L15.9827 16.9576L13.649 14.7612C12.6448 13.8161 12.6167 12.8798 13.3442 11.8691C13.5036 11.6478 14.6121 10.7777 14.6121 10.7777C15.2663 10.4318 15.2253 9.70133 14.8583 9.09554C14.8583 9.09554 13.1912 6.41802 11.7333 5.69195C11.1131 5.38299 10.3516 5.49112 9.85565 5.95788L8.8251 6.92781C5.55583 10.0048 7.16555 13.4784 10.4348 16.5554L13.4227 19.3675L16.4106 22.1797C19.6799 25.2566 23.3707 26.7717 26.6399 23.6947L27.6705 22.7248C28.1664 22.2569 28.2807 21.5402 27.9524 20.9571Z" fill="white"/>
</svg>
